<?xml version="1.0" encoding="UTF-8" standalone="no"?>
<!-- Created with Inkscape (http://www.inkscape.org/) -->

<svg
   xmlns:dc="http://purl.org/dc/elements/1.1/"
   xmlns:cc="http://creativecommons.org/ns#"
   xmlns:rdf="http://www.w3.org/1999/02/22-rdf-syntax-ns#"
   xmlns:svg="http://www.w3.org/2000/svg"
   xmlns="http://www.w3.org/2000/svg"
   xmlns:sodipodi="http://sodipodi.sourceforge.net/DTD/sodipodi-0.dtd"
   xmlns:inkscape="http://www.inkscape.org/namespaces/inkscape"
   width="16.68968mm"
   height="12.69995mm"
   viewBox="0 0 16.68968 12.69995"
   version="1.1"
   id="svg4542"
   inkscape:version="0.92.4 (5da689c313, 2019-01-14)"
   sodipodi:docname="camion.svg">
  <defs
     id="defs4536" />
  <sodipodi:namedview
     id="base"
     pagecolor="#ffffff"
     bordercolor="#666666"
     borderopacity="1.0"
     inkscape:pageopacity="0.0"
     inkscape:pageshadow="2"
     inkscape:zoom="1.1320312"
     inkscape:cx="-161.20006"
     inkscape:cy="-74.992605"
     inkscape:document-units="mm"
     inkscape:current-layer="layer1"
     showgrid="false"
     fit-margin-top="0"
     fit-margin-left="0"
     fit-margin-right="0"
     fit-margin-bottom="0"
     inkscape:window-width="1920"
     inkscape:window-height="1001"
     inkscape:window-x="-9"
     inkscape:window-y="-9"
     inkscape:window-maximized="1" />
  <metadata
     id="metadata4539">
    <rdf:RDF>
      <cc:Work
         rdf:about="">
        <dc:format>image/svg+xml</dc:format>
        <dc:type
           rdf:resource="http://purl.org/dc/dcmitype/StillImage" />
        <dc:title></dc:title>
      </cc:Work>
    </rdf:RDF>
  </metadata>
  <g
     inkscape:label="Layer 1"
     inkscape:groupmode="layer"
     id="layer1"
     transform="translate(-105.94634,-116.29159)">
    <path
       style="fill:#448ec3;fill-opacity:1;stroke-width:0.26458332"
       d="m 105.94638,128.72701 c 0,-0.1532 0.84728,-0.26458 2.01268,-0.26458 1.7266,0 1.98985,-0.0595 1.85208,-0.41852 -0.0883,-0.23018 -0.1606,-0.46831 -0.1606,-0.52916 0,-0.0609 -0.21431,-0.11066 -0.47625,-0.11066 -0.8,0 -1.11125,-0.57062 -1.11125,-2.03729 0,-1.07009 0.094,-1.40229 0.39688,-1.40229 0.30467,0 0.39687,0.33808 0.39687,1.45521 0,0.80036 0.0675,1.45521 0.15006,1.45521 0.0825,0 0.54308,-0.41672 1.02343,-0.92604 0.49838,-0.52844 1.13055,-0.92605 1.47235,-0.92605 0.3418,0 0.97396,0.39761 1.47234,0.92605 0.82154,0.87108 0.97396,0.92604 2.56846,0.92604 1.55494,0 1.72021,-0.0551 1.99889,-0.66677 0.64494,-1.41549 2.80232,-1.38802 3.45478,0.044 0.44948,0.9865 0.94572,0.61486 1.03678,-0.77644 l 0.0802,-1.22558 -2.32917,-0.0767 -2.32917,-0.0767 -0.0788,-1.65364 -0.0788,-1.65365 h 0.80637 c 0.44351,0 0.80638,-0.11906 0.80638,-0.26458 0,-0.14699 -0.70556,-0.26459 -1.5875,-0.26459 h -1.5875 v 1.98438 c 0,1.14653 -0.11171,1.98437 -0.26458,1.98437 -0.15266,0 -0.26459,-0.83199 -0.26459,-1.9668 0,-1.94891 -0.007,-1.96756 -0.7276,-2.05052 -0.40018,-0.046 -0.7276,-0.20278 -0.7276,-0.3483 0,-0.152 1.04896,-0.29706 2.46511,-0.34089 l 2.46511,-0.0763 1.97714,1.91712 1.97714,1.91713 -0.0766,1.85652 c -0.0637,1.54441 -0.16559,1.90215 -0.60579,2.12793 -0.29104,0.14928 -0.85118,0.59884 -1.24475,0.99902 l -0.71557,0.7276 h -7.02349 c -4.50593,0 -7.02348,-0.0948 -7.02348,-0.26458 z m 6.39531,-0.70247 c 0.96074,-0.86945 0.45209,-2.20795 -0.83906,-2.20795 -1.27061,0 -1.7599,1.19527 -0.88504,2.16198 0.54335,0.60039 1.09522,0.61511 1.7241,0.046 z m -1.10365,-0.88503 c 0,-0.14552 0.11907,-0.26458 0.26459,-0.26458 0.14552,0 0.26458,0.11906 0.26458,0.26458 0,0.14552 -0.11906,0.26458 -0.26458,0.26458 -0.14552,0 -0.26459,-0.11906 -0.26459,-0.26458 z m 6.35,0.79375 c -0.24437,-0.45662 -0.55399,-0.52917 -2.25826,-0.52917 -1.08629,0 -1.97507,0.0498 -1.97507,0.11066 0,0.0609 -0.0723,0.29898 -0.1606,0.52916 -0.13923,0.36282 0.16128,0.41852 2.25827,0.41852 2.33688,0 2.40927,-0.0179 2.13566,-0.52917 z m 2.426,0.19844 c 1.05624,-0.85104 0.52237,-2.31511 -0.84419,-2.31511 -1.24786,0 -1.69737,1.20736 -0.78806,2.11667 0.61084,0.61084 1.05361,0.66467 1.63225,0.19844 z m -1.10308,-0.99219 c 0,-0.14552 0.18562,-0.26458 0.41249,-0.26458 0.22687,0 0.33891,0.11906 0.24897,0.26458 -0.0899,0.14552 -0.27556,0.26458 -0.41249,0.26458 -0.13693,0 -0.24897,-0.11906 -0.24897,-0.26458 z m 2.11667,-4.63021 c -0.97783,-0.99633 -1.33223,-1.19062 -2.17176,-1.19062 h -1.00324 v 1.19062 1.19063 h 2.17175 2.17176 z m -15.08125,3.70417 c 0,-0.24695 0.24988,-0.39688 0.66146,-0.39688 0.41157,0 0.66145,0.14993 0.66145,0.39688 0,0.24694 -0.24988,0.39687 -0.66145,0.39687 -0.41158,0 -0.66146,-0.14993 -0.66146,-0.39687 z m 0.70555,-0.83785 c -0.30444,-0.30444 -0.19268,-0.61736 0.22049,-0.61736 0.21828,0 0.39687,0.17859 0.39687,0.39688 0,0.41316 -0.31292,0.52492 -0.61736,0.22048 z m 9.87778,-0.22048 c 0,-0.22049 0.23519,-0.39688 0.52917,-0.39688 0.29398,0 0.52916,0.17639 0.52916,0.39688 0,0.22048 -0.23518,0.39687 -0.52916,0.39687 -0.29398,0 -0.52917,-0.17639 -0.52917,-0.39687 z m -9.78958,-1.19063 c 0,-0.14552 0.11906,-0.26458 0.26458,-0.26458 0.14552,0 0.26458,0.11906 0.26458,0.26458 0,0.14552 -0.11906,0.26458 -0.26458,0.26458 -0.14552,0 -0.26458,-0.11906 -0.26458,-0.26458 z m 0.90486,-1.02809 c -0.92149,-0.56192 -1.69861,-1.988 -1.69861,-3.11707 0,-1.81435 1.77133,-3.52776 3.64703,-3.52776 2.72313,0 4.41772,3.11648 2.97826,5.47726 -0.98461,1.61483 -3.29524,2.16242 -4.92668,1.16757 z m 3.33713,-0.4316 c 2.22815,-1.15222 1.97157,-4.63496 -0.39911,-5.41736 -1.19604,-0.39472 -2.17481,-0.16684 -3.11198,0.72456 -0.94839,0.90206 -1.17156,2.1296 -0.60445,3.32469 0.73524,1.5494 2.57944,2.16246 4.11554,1.36811 z m -2.26013,-0.97279 c -0.39105,-0.46474 -0.81855,-1.12785 -0.94999,-1.47357 -0.49581,-1.30409 0.44642,-2.70853 1.81715,-2.70853 0.79781,0 1.91348,1.12354 1.91348,1.92698 0,0.64597 -1.46729,3.1001 -1.8535,3.1001 -0.11887,0 -0.53608,-0.38024 -0.92714,-0.84498 z m 1.98487,-1.53139 c 0.55141,-1.33123 -0.61902,-2.5158 -1.84007,-1.86231 -0.71722,0.38384 -0.70827,1.67055 0.0187,2.6915 0.52147,0.73234 0.58896,0.75535 1.03415,0.35245 0.26196,-0.23706 0.61619,-0.7688 0.7872,-1.18164 z m -1.67582,-0.13302 c -0.47176,-0.47175 -0.33882,-1.07501 0.29006,-1.31633 0.62942,-0.24153 1.31942,0.54507 0.96751,1.10296 -0.39636,0.62836 -0.77786,0.69309 -1.25757,0.21337 z"
       id="path4524"
       inkscape:connector-curvature="0" />
  </g>
</svg>
